<?xml version="1.0" encoding="UTF-8"?>
<svg id="Layer_2" data-name="Layer 2" xmlns="http://www.w3.org/2000/svg" viewBox="0 0 14.34 14.34">
  <defs>
    <style>
      .cls-1 {
        fill: #631134;
      }

      .cls-1, .cls-2, .cls-3 {
        stroke-width: 0px;
      }

      .cls-2 {
        fill: #794134;
      }

      .cls-3 {
        fill: #d78261;
      }
    </style>
  </defs>
  <g id="OBJECTS">
    <g>
      <g>
        <path class="cls-2" d="m13.33,6.17c.55,3.4-1.76,6.61-5.17,7.16-3.4.55-6.61-1.76-7.16-5.17C.46,4.76,2.77,1.56,6.17,1.01s6.61,1.76,7.16,5.17Z"/>
        <path class="cls-1" d="m12.44,6.42c.32,2.19-.82,4.38-2.74,5.43s-4.46.77-6.1-.73-2.22-3.93-1.35-6S5.17,1.78,7.37,1.85c2.6.08,4.63,2.07,5.07,4.57.21,1.17,1.99.67,1.78-.49C13.72,3.06,11.42.66,8.53.13S2.48.95.96,3.59-.2,9.53,1.73,11.84s5.18,3.1,7.92,2.05c3.27-1.25,5.08-4.54,4.57-7.96-.07-.49-.7-.77-1.14-.65-.53.15-.72.64-.65,1.14Z"/>
      </g>
      <path class="cls-3" d="m9.9,4.77c.18,1.09-.56,2.12-1.66,2.3-1.09.18-2.12-.57-2.3-1.66-.18-1.09.57-2.12,1.66-2.3,1.09-.18,2.12.56,2.3,1.66Z"/>
    </g>
  </g>
</svg>