<?xml version="1.0" encoding="UTF-8"?>
<svg id="Layer_2" data-name="Layer 2" xmlns="http://www.w3.org/2000/svg" viewBox="0 0 53.37 21.04">
  <defs>
    <style>
      .cls-1 {
        fill: #ff4881;
        opacity: .5;
      }

      .cls-1, .cls-2, .cls-3 {
        stroke-width: 0px;
      }

      .cls-3 {
        fill: #fff;
      }

      .cls-4 {
        fill: none;
        stroke: #000;
        stroke-linecap: round;
        stroke-linejoin: round;
        stroke-width: 2px;
      }
    </style>
  </defs>
  <g id="OBJECTS">
    <g>
      <path class="cls-1" d="m13.04,11.71c-.18,1.49-3.24,2.35-6.84,1.92C2.6,13.2-.17,11.65,0,10.16c.18-1.49,3.24-2.35,6.84-1.92,3.6.43,6.37,1.99,6.19,3.48Z"/>
      <ellipse class="cls-1" cx="45.9" cy="14.42" rx="7.46" ry="3.09"/>
      <g>
        <path class="cls-2" d="m17.42,4.98c0,2.75-2.23,4.98-4.98,4.98s-4.98-2.23-4.98-4.98S9.69,0,12.44,0s4.98,2.23,4.98,4.98Z"/>
        <circle class="cls-3" cx="10.61" cy="3.74" r="1.94"/>
        <circle class="cls-3" cx="14.02" cy="2.62" r="1.12"/>
      </g>
      <path class="cls-4" d="m17.46,13.22s-1.79,2.39.4,4.58c2.19,2.19,5.78-1.79,5.78-1.79,0,0,1.99,4.58,5.58,3.98s3.39-4.58,2.19-5.98"/>
      <path class="cls-4" d="m50.83,9.93s-8.96-2.58-15.84.12c0,0,5.16-4.17,12.52-3.68"/>
    </g>
  </g>
</svg>