<?xml version="1.0" encoding="UTF-8"?>
<svg xmlns="http://www.w3.org/2000/svg" viewBox="0 0 122.29 202.12">
  <defs>
    <style>
      .cls-1 {
        opacity: .5;
      }

      .cls-1, .cls-2, .cls-3, .cls-4, .cls-5, .cls-6, .cls-7, .cls-8, .cls-9, .cls-10, .cls-11, .cls-12, .cls-13, .cls-14, .cls-15 {
        stroke-width: 0px;
      }

      .cls-1, .cls-5 {
        fill: #ff4881;
      }

      .cls-16 {
        isolation: isolate;
      }

      .cls-17 {
        fill: #ffb1ab;
        stroke: #ff6159;
      }

      .cls-17, .cls-18 {
        stroke-linecap: round;
        stroke-linejoin: round;
        stroke-width: 2px;
      }

      .cls-3 {
        fill: #607ba3;
      }

      .cls-4, .cls-9 {
        mix-blend-mode: multiply;
      }

      .cls-4, .cls-12 {
        opacity: .3;
      }

      .cls-4, .cls-14 {
        fill: #ffbc00;
      }

      .cls-19 {
        fill: #ff94bd;
      }

      .cls-19, .cls-20 {
        stroke: #ff0062;
        stroke-width: 2.8px;
      }

      .cls-19, .cls-20, .cls-21 {
        stroke-miterlimit: 10;
      }

      .cls-20 {
        fill: #ff6ea6;
      }

      .cls-6 {
        fill: #d08c9a;
      }

      .cls-7 {
        fill: #fff;
      }

      .cls-8 {
        fill: #ffda73;
      }

      .cls-9 {
        fill: #c1d2ec;
        opacity: .45;
      }

      .cls-21 {
        fill: #b14158;
        stroke: #8a1646;
      }

      .cls-10 {
        fill: #ff0062;
      }

      .cls-11 {
        fill: #c16879;
      }

      .cls-18 {
        fill: none;
        stroke: #000;
      }

      .cls-12 {
        fill: #606b72;
      }

      .cls-13 {
        fill: #f5fdff;
      }

      .cls-15 {
        fill: #8ec14d;
      }
    </style>
  </defs>
  <g class="cls-16">
    <g id="Layer_2" data-name="Layer 2">
      <g id="OBJECTS">
        <g>
          <path class="cls-3" d="m101.79,74.01s-.04,0-.06.01c.19-.03.38-.07.56-.1.19-.03.39-.07.59-.1h0s-1.09.19-1.09.19Z"/>
          <path class="cls-3" d="m84.38,80.44c-1.13-.13-2.37-.28-3.69-.25,1.32-.04,2.56.11,3.69.25,1.29.15,2.42.27,3.42.13-1.01.14-2.13.03-3.42-.13Z"/>
          <path class="cls-3" d="m93.62,79.03c-1.51.49-3.16.94-4.9,1.35,1.74-.41,3.39-.86,4.9-1.35Z"/>
          <path class="cls-3" d="m99.56,74.58c-.28.11-.56.23-.84.38.28-.15.56-.27.84-.38Z"/>
          <path class="cls-3" d="m100.4,74.31c-.16.04-.32.1-.49.15.16-.05.32-.11.49-.15Z"/>
          <path class="cls-3" d="m101.23,74.12c-.13.03-.26.06-.39.09.13-.03.26-.06.39-.09Z"/>
          <path class="cls-3" d="m88.81,83.24c-1.48.34-2.94.19-4.47.01,1.53.18,2.99.32,4.47-.01Z"/>
          <path class="cls-3" d="m100.61,77.18s.1-.04.15-.05c-.05.02-.1.04-.15.05Z"/>
          <path class="cls-15" d="m101.72,74.02c-.16.03-.33.06-.5.1.17-.03.33-.07.5-.1Z"/>
          <path class="cls-15" d="m100.83,74.21c-.14.03-.29.07-.43.11.15-.04.29-.07.43-.11Z"/>
          <path class="cls-15" d="m99.91,74.47c-.12.04-.23.07-.35.12.12-.04.23-.08.35-.12Z"/>
          <path class="cls-15" d="m100.92,77.07c-.05.02-.1.04-.15.05.05-.02.1-.03.15-.04h0Z"/>
          <path class="cls-15" d="m87.8,80.57c.13-.02.27-.03.39-.05.18-.04.35-.08.53-.13-.18.04-.35.09-.53.13-.13.03-.26.04-.39.05Z"/>
          <path class="cls-15" d="m100.06,77.42c.18-.09.36-.17.56-.24-.19.07-.38.15-.56.24Z"/>
          <path class="cls-15" d="m84.34,83.25c-.1-.01-.2-.02-.3-.04-1.05-.13-2.13-.25-3.24-.23,1.1-.02,2.18.1,3.23.23.1.01.2.02.3.04Z"/>
          <g>
            <path class="cls-13" d="m55.84,68.82c0,2.5,6.16,4.53,13.76,4.53s13.76-2.03,13.76-4.53-6.16-4.53-13.76-4.53-13.76,2.03-13.76,4.53Z"/>
            <path class="cls-13" d="m93.46,185.31c0,6.77-15.45,14.01-38.44,14.01s-38.44-7.25-38.44-14.01v-.12s-8.26-96.75-8.26-96.75c.05.02.1.03.15.04.05.02.1.04.15.05.19.07.38.15.56.24.5.27.98.78,1.53,1.38.95,1.01,2.13,2.28,4.04,2.9,1.74.57,3.65,1.09,5.67,1.55,1.48.34,2.94.19,4.47.01.1-.01.2-.02.3-.04,1.05-.13,2.13-.25,3.23-.23.37,0,.74.03,1.11.08.67.09,1.5.52,2.38.99,1.18.62,2.51,1.32,3.98,1.44,1.74.15,3.16-.21,4.54-.55,1.29-.32,2.51-.62,4.1-.58.45.01,1.32.36,2.17.71,2.3.93,5.46,2.2,8.53.59,1.17-.61,2.11-.17,3.67.67.15.08.3.16.46.24.05.03.1.05.15.08.11.06.22.11.34.17.06.03.13.06.2.09.1.05.2.09.31.14.07.03.15.06.22.09.1.04.2.08.31.12.08.03.15.05.23.08.11.03.22.06.33.09.07.02.15.04.22.06.13.03.26.05.4.07.06,0,.11.02.17.03.19.02.38.03.58.03,0,0,.01,0,.02,0,.22,0,.45-.02.68-.05,1.52-.22,2.77-1.06,3.88-1.8.97-.65,1.91-1.27,2.69-1.25,8.59.11,10.21-.74,11.56-1.94.32-.28.45-.4,1.1-.5,2.06-.32,3.87-.2,5.62-.09.09,0,.18.01.27.02,1.57.1,3.07.17,4.55-.12.28-.06.55-.12.83-.2,2.87-.87,4.09-2.34,5.07-3.52.24-.29.47-.57.7-.81s.48-.46.76-.63c.08-.05.12-.06.62.01.18.03.36.05.55.07.01,0,.02,0,.03,0l-8.29,97.13Z"/>
            <path class="cls-3" d="m93.2,90.39c.8-.24,1.4-.53,1.9-.86-.49.33-1.1.62-1.9.86-1.28.39-2.73.32-4.39.21,1.66.11,3.11.17,4.39-.21Z"/>
            <path class="cls-3" d="m78.6,92.53c-1.13.36-3.39.65-8.5.58,5.11.07,7.38-.22,8.5-.58Z"/>
            <path class="cls-3" d="m61.65,98.87c-.08-.02-.15-.04-.22-.06.07.02.15.04.22.06Z"/>
            <path class="cls-3" d="m62.22,98.97c-.06,0-.12-.02-.17-.03.06,0,.12.02.17.03Z"/>
            <path class="cls-3" d="m66.28,94.53s.06-.04.08-.05c-.03.02-.06.04-.08.05Z"/>
            <path class="cls-3" d="m66.76,94.22s.01,0,.02,0c0,0-.01,0-.02,0Z"/>
            <path class="cls-3" d="m78.82,92.45s.06-.02.08-.03c-.02,0-.06.02-.08.03Z"/>
            <path class="cls-3" d="m61.1,98.72c-.08-.02-.15-.05-.23-.08.08.03.15.05.23.08Z"/>
            <path class="cls-3" d="m70.07,95.9c8.59.11,10.21-.73,11.56-1.94-1.35,1.2-2.97,2.05-11.56,1.94Z"/>
            <ellipse class="cls-12" cx="68.44" cy="180.22" rx="54.17" ry="18.73" transform="translate(-20.5 9.19) rotate(-6.68)"/>
            <path class="cls-3" d="m8.31,88.45l8.26,96.75v.12c0,6.77,15.45,14.01,38.45,14.01s38.44-7.25,38.44-14.01l8.29-97.13s-.02,0-.03,0c.83.08,1.74.01,2.88-.51l-8.35,97.71c-.08,9.4-18.16,16.75-41.24,16.75s-41.16-7.35-41.24-16.75L5.46,87.91v-.04c.34.07.68.13,1.03.19.62.1,1.24.22,1.83.4Z"/>
            <path class="cls-3" d="m59.5,98.03s-.1-.05-.15-.08c.05.03.1.05.15.08Z"/>
            <path class="cls-3" d="m88.63,93.39c1.57.1,3.07.17,4.55-.12-1.48.3-2.98.22-4.55.12Z"/>
            <path class="cls-3" d="m62.82,99.01c.22,0,.45-.02.68-.05-.23.03-.46.05-.68.05Z"/>
            <path class="cls-3" d="m60.56,98.52c-.07-.03-.15-.06-.22-.09.07.03.15.06.22.09Z"/>
            <path class="cls-3" d="m60.04,98.29c-.07-.03-.13-.06-.2-.09.06.03.13.06.2.09Z"/>
            <path class="cls-15" d="m82.73,93.46c2.06-.32,3.87-.2,5.62-.09.09,0,.18.01.27.02-.09,0-.18-.01-.27-.02-1.75-.11-3.56-.23-5.62.09Z"/>
            <path class="cls-15" d="m66.36,94.47c.13-.09.26-.17.4-.25-.13.08-.27.17-.4.25Z"/>
            <path class="cls-15" d="m78.6,92.53c.08-.03.15-.05.22-.08-.07.03-.14.05-.22.08Z"/>
            <path class="cls-15" d="m78.91,92.42c.46-.18.68-.38.86-.54-.19.17-.4.36-.86.54Z"/>
            <path class="cls-15" d="m65.82,94.83c.15-.1.31-.21.46-.31-.16.1-.31.21-.46.31Z"/>
            <path class="cls-15" d="m62.05,98.94c-.13-.02-.27-.04-.4-.07.13.03.26.05.4.07Z"/>
            <path class="cls-15" d="m94.01,93.07c-.28.08-.55.15-.83.2.28-.06.55-.12.83-.2,2.87-.87,4.09-2.34,5.07-3.52-.98,1.18-2.19,2.66-5.07,3.52Z"/>
            <path class="cls-15" d="m59.36,97.95c-.16-.08-.31-.16-.46-.24.15.08.3.16.46.24Z"/>
            <path class="cls-15" d="m60.87,98.64c-.1-.04-.21-.08-.31-.12.1.04.2.08.31.12Z"/>
            <path class="cls-15" d="m61.43,98.81c-.11-.03-.22-.06-.33-.09.11.03.22.06.33.09Z"/>
            <path class="cls-15" d="m70.1,93.11c-1.28,0-2.35.51-3.33,1.1.97-.6,2.04-1.11,3.27-1.11.02,0,.04,0,.06,0Z"/>
            <path class="cls-15" d="m88.54,90.58c.1,0,.19.01.28.02-.09,0-.19-.01-.28-.02-1.81-.12-3.87-.25-6.23.12,2.36-.36,4.42-.23,6.23-.12Z"/>
            <path class="cls-15" d="m59.84,98.2c-.11-.06-.23-.11-.34-.17.11.06.22.11.34.17Z"/>
            <path class="cls-15" d="m39.75,93.6c-1.26.31-2.35.58-3.63.48-.79-.07-1.67-.49-2.54-.94.87.45,1.75.87,2.54.94,1.28.11,2.37-.16,3.63-.48Z"/>
            <path class="cls-15" d="m62.22,98.97c.19.02.39.03.59.03,0,0-.01,0-.02,0-.2,0-.39-.01-.58-.03Z"/>
            <path class="cls-15" d="m96.92,87.76c-.54.66-1.05,1.26-1.82,1.77.78-.51,1.28-1.11,1.82-1.77Z"/>
            <path class="cls-15" d="m60.34,98.43c-.1-.05-.21-.09-.31-.14.1.05.2.09.31.14Z"/>
            <path class="cls-17" d="m95.65,128.41l-5.7,54.43c-.16,1.82-1.01,3.46-2.33,4.48-4.64,3.58-17.11,11.01-38.85,9.05-24.62-2.23-28.27-12.11-28.27-12.11l-4.32-48.24,79.47-7.6Z"/>
            <g>
              <circle class="cls-21" cx="54.16" cy="166.82" r="7"/>
              <path class="cls-6" d="m55.25,163.05c0,1.12-.91,2.02-2.02,2.02s-2.02-.91-2.02-2.02.91-2.02,2.02-2.02,2.02.91,2.02,2.02Z"/>
              <path class="cls-6" d="m52.31,167.46c-.41.33-1.01.28-1.34-.13-.33-.41-.28-1.01.13-1.34.41-.33,1.01-.28,1.34.13.33.41.28,1.01-.13,1.34Z"/>
              <path class="cls-11" d="m56.36,161.39c.47-.42,4.05,1.34,3.81,5.53-.25,4.51-4.32,6.52-7.37,5.59-2.08-.63-2.21-2.19-.64-3.24,1.13-.75,4.19-.64,4.96-2.73.93-2.57-1.33-4.64-.76-5.15Z"/>
            </g>
            <g>
              <circle class="cls-21" cx="34.8" cy="156.39" r="6.38"/>
              <path class="cls-6" d="m35.8,152.95c0,1.02-.83,1.85-1.85,1.85s-1.85-.83-1.85-1.85.83-1.85,1.85-1.85,1.85.83,1.85,1.85Z"/>
              <path class="cls-6" d="m33.12,156.97c-.37.3-.92.25-1.22-.12-.3-.37-.25-.92.12-1.22.37-.31.92-.25,1.22.12.31.37.25.92-.12,1.22Z"/>
              <path class="cls-11" d="m36.81,151.43c.43-.38,3.69,1.22,3.48,5.04-.23,4.11-3.94,5.94-6.72,5.1-1.89-.57-2.02-2-.58-2.95,1.03-.68,3.82-.58,4.52-2.49.85-2.34-1.22-4.23-.7-4.69Z"/>
            </g>
            <g>
              <circle class="cls-21" cx="31.22" cy="179.99" r="6.38"/>
              <path class="cls-6" d="m32.21,176.55c0,1.02-.83,1.85-1.85,1.85s-1.85-.83-1.85-1.85.83-1.85,1.85-1.85,1.85.83,1.85,1.85Z"/>
              <path class="cls-6" d="m29.54,180.57c-.37.3-.92.25-1.22-.12s-.25-.92.12-1.22c.37-.31.92-.25,1.22.12s.25.92-.12,1.22Z"/>
              <path class="cls-11" d="m33.23,175.03c.43-.38,3.69,1.22,3.48,5.04-.23,4.11-3.94,5.94-6.72,5.1-1.89-.57-2.02-2-.58-2.95,1.03-.68,3.82-.58,4.52-2.49.85-2.34-1.22-4.23-.7-4.69Z"/>
            </g>
            <path class="cls-20" d="m60.89,140.36c-1.45,23.67-2.69,42.22-2.69,42.22h0c-.07,1.86,2.01,3.48,4.69,3.64,2.67.16,4.93-1.19,5.09-3.04l2.87-44.64-9.96,1.81Z"/>
            <path class="cls-17" d="m95.47,129.14c-.54,3.21-5.79,9.41-22.81,11.04-13.69,1.31-27.51,6.15-38.38,4.89-8.11-.95-17.11-2.72-18.1-7.6-1-4.88,5.43-8.51,16.83-9.59,7.3-.7,13.94,1.81,34.57-3.8,14.97-4.07,29.78-6.34,27.88,5.07Z"/>
            <g>
              <path class="cls-19" d="m68.82,4.1c.25-1.78,2.45-2.84,5.06-2.69,2.62.16,4.67,1.57,4.69,3.37l-7.51,127.72c-.16,1.85-2.42,3.2-5.09,3.04-2.67-.16-4.75-1.78-4.69-3.64h0s7.53-127.82,7.53-127.82Z"/>
              <path class="cls-10" d="m77.26,5.94c-1.19,2.73-5.28,2.95-7.12.82-.63-.67-1.01-1.53-1.05-2.47.5.08.87.24,1.25.34,2.2.74,4.6,1.08,6.93,1.31h0Z"/>
            </g>
            <path class="cls-8" d="m54.64,55.08c3.58,0,7.01.13,10.28.39l-.47,8.2c-4.24.75-7.18,2.32-7.18,4.15,0,2.55,5.68,4.62,12.69,4.62s12.69-2.07,12.69-4.62c0-1.71-2.58-3.21-6.39-4l.43-6.83c16.06,2.99,26.16,9.05,26.45,14.86.02.5.07.95-.13,1.48-.31.74-4.99,9.96-49.33,9.96-36.53,0-45.94-9.76-47.38-11.6.62-8.1,19.87-16.61,48.33-16.61Z"/>
            <path class="cls-14" d="m64.41,63.03c-4.65.72-8.33,2.4-8.33,4.97,0,3.53,6.94,5.37,13.8,5.37s13.8-1.85,13.8-5.37c0-2.38-3.15-3.99-7.31-4.79l-.29,2.25c3.4.68,5.33,1.81,5.33,2.54,0,1.1-4.38,3.11-11.54,3.11s-11.54-2.01-11.54-3.11c0-.77,2.14-1.98,5.88-2.64l.19-2.32Z"/>
            <path class="cls-4" d="m64.93,58.82c-7.49-1.37-14.12-1.84-13.68-1.99,3-1,7.86-1.15,13.38-.68l.3,2.67Z"/>
            <path class="cls-4" d="m76.51,57.9c13.23,2.72,25.7,7.77,23.76,12.51-4.26,10.4-39.24,11.68-38.56,10.45.68-1.22,26.88-5.43,22.67-13.71-1.17-2.3-4.31-4.09-8.22-5.49l.35-3.76Z"/>
            <path class="cls-9" d="m17.54,92.9c.54,0,6.52.72,7.78,1.63,1.27.91,7.42,3.98,11.95,4.53,4.53.54,3.8,2.72,9.78,2.35,5.97-.36,6.15,1.09,9.23.91,3.08-.18,8.33-.72,12.67,2.53,4.34,3.26,7.96,9.78,8.33,27.88.36,18.1,0,54.31-9.96,60.64-9.96,6.34-29.51,4.89-29.51,4.89,0,0,44.17,8.15,55.57-11.59l8.33-99.38s-2.72,3.26-7.24,3.98c-4.53.72-76.93,1.63-76.93,1.63Z"/>
            <path class="cls-8" d="m102.25,85.41s-.07,0-.1,0c-.02,0-.03,0-.05,0-.17-.01-.34-.03-.53-.06-.46-.07-1.05-.15-1.7.03-.03,0-.06.01-.1.02-.05.01-.09.04-.14.05-.07.03-.14.05-.21.08-.12.05-.24.12-.36.19-.95.59-1.55,1.32-2.14,2.03-.54.66-1.05,1.26-1.82,1.77-.49.33-1.1.61-1.9.86-1.28.39-2.73.32-4.39.21-.09,0-.19-.01-.28-.02-1.81-.12-3.87-.25-6.23.12-1.37.21-1.96.66-2.54,1.18-.19.17-.4.36-.86.54-.02,0-.06.02-.08.03-.07.03-.14.05-.22.08-1.13.36-3.39.64-8.5.58-.02,0-.04,0-.06,0-1.23,0-2.3.51-3.27,1.11,0,0-.01,0-.02,0-.13.08-.27.17-.4.25-.03.02-.06.04-.08.05-.16.1-.31.21-.46.31-.94.63-1.83,1.23-2.72,1.35-.89.13-1.81-.37-2.88-.94-1.67-.9-3.75-2.02-6.29-.69-1.93,1.01-4.2.1-6.19-.71-1.17-.47-2.18-.88-3.13-.91-1.96-.06-3.5.32-4.85.66-1.26.31-2.35.58-3.63.48-.79-.07-1.67-.48-2.54-.94-.12-.06-.25-.13-.37-.19-1.06-.56-2.15-1.13-3.32-1.29-.46-.06-.91-.09-1.35-.1-1.32-.04-2.56.11-3.69.25-1.29.15-2.42.27-3.42.13-.13-.02-.27-.03-.39-.05-.18-.04-.35-.08-.53-.13-1.74-.41-3.39-.86-4.9-1.35-1.22-.4-2.02-1.25-2.86-2.15-.66-.71-1.35-1.44-2.25-1.93-.27-.15-.55-.27-.84-.38-.12-.04-.23-.08-.35-.12-.16-.05-.32-.11-.49-.15-.15-.04-.29-.07-.43-.11-.13-.03-.26-.06-.39-.09-.17-.03-.33-.07-.5-.1-.02,0-.04,0-.06-.01l-1.09-.19h0c-.54-.1-1.06-.22-1.23-.38-1.68-1.62-2.15-2.95-2.27-3.47l2.5-6.55c3.92,3.73,15.87,11.31,48.34,11.31,37.29,0,47.9-6.5,50.93-10.12l1.82,5.53c.01.24,0,1.48-1.61,2.74-1.01.79-1.69,1.07-2.24,1.14-.04,0-.07.01-.11.01-.08,0-.15,0-.22,0Z"/>
            <path class="cls-4" d="m72.57,89.95c1.49,2.44,1.76-3.39,4.34-3.12,2.58.27,6.11,5.16,9.1,5.97,2.99.81,2.72-8.01,5.02-8.69,2.31-.68,7.47,3.12,7.47,3.12,0,0,7.06-1.49,8.28-3.94,1.22-2.44-2.58-10.45-2.58-10.45,0,0-7.74,7.47-17.51,8.82-9.77,1.36-27.02,3.26-27.02,3.26,0,0,11.4,2.58,12.9,5.02Z"/>
            <path class="cls-14" d="m5.92,86.2l.44-1.01c.2.04.4.07.59.1.18.03.37.06.56.1.16.03.33.06.5.1.13.03.26.06.39.09.14.03.29.07.43.11.16.04.32.1.49.15.12.04.23.07.35.12.28.11.56.23.84.38.9.48,1.58,1.22,2.25,1.93.84.9,1.64,1.75,2.86,2.15,1.51.49,3.16.94,4.9,1.35.18.04.35.09.53.13.13.03.26.04.39.05,1.01.15,2.13.03,3.42-.13,1.13-.13,2.37-.28,3.69-.25.44.01.89.04,1.35.1,1.17.15,2.26.73,3.32,1.29.12.06.25.13.37.19.87.45,1.75.87,2.54.94,1.28.11,2.37-.16,3.63-.48,1.35-.34,2.89-.72,4.85-.66.95.03,1.96.43,3.13.91,2,.8,4.26,1.71,6.19.71,2.54-1.33,4.62-.21,6.29.69,1.06.57,1.98,1.07,2.88.94.89-.13,1.78-.72,2.72-1.35.15-.1.31-.21.46-.31.03-.02.06-.04.08-.05.13-.09.26-.17.4-.25,0,0,.01,0,.02,0,.97-.6,2.05-1.1,3.33-1.1,5.11.07,7.37-.22,8.5-.58.08-.03.15-.05.22-.08.03,0,.06-.02.08-.03.46-.18.68-.38.86-.54.58-.52,1.18-.97,2.54-1.18,2.36-.36,4.41-.23,6.23-.12.1,0,.19.01.28.02,1.66.11,3.11.17,4.39-.21.8-.24,1.4-.53,1.9-.86.78-.51,1.28-1.11,1.82-1.77.59-.71,1.19-1.44,2.14-2.03.12-.08.24-.14.36-.19.07-.03.14-.06.21-.08.05-.02.09-.04.14-.05.03-.01.06-.01.1-.02.65-.18,1.24-.1,1.7-.03.18.03.35.05.53.06.02,0,.03,0,.05,0,.03,0,.07,0,.1,0,.07,0,.14,0,.22,0,.03,0,.07-.01.11-.01.05,0,.1-.01.16-.02l1.19-.24.41,1.14c.1.27.18.54.25.85l.05.21-.03.35c-1.14.53-2.05.59-2.88.51-.2-.02-.39-.05-.55-.07-.5-.07-.55-.06-.63-.01-.28.18-.53.39-.76.63-.24.24-.46.52-.7.81-.98,1.18-2.19,2.66-5.07,3.52-.28.08-.55.15-.83.2-1.48.29-2.98.22-4.55.12-.09,0-.18-.01-.27-.02-1.75-.11-3.56-.23-5.62.09-.66.1-.79.22-1.1.5-1.35,1.2-2.98,2.05-11.56,1.94-.78-.01-1.72.6-2.69,1.25-1.1.74-2.36,1.58-3.88,1.8-.23.03-.46.05-.68.05-.2,0-.4-.01-.59-.03-.06,0-.12-.02-.17-.03-.13-.02-.27-.04-.4-.07-.08-.02-.15-.04-.22-.06-.11-.03-.22-.06-.33-.09-.08-.02-.15-.05-.23-.08-.1-.04-.21-.08-.31-.12-.07-.03-.15-.06-.22-.09-.1-.05-.21-.09-.31-.14-.07-.03-.13-.06-.2-.09-.11-.06-.23-.11-.34-.17-.05-.03-.1-.05-.15-.08-.16-.08-.31-.16-.46-.24-1.56-.84-2.5-1.29-3.67-.67-3.08,1.6-6.23.34-8.53-.59-.85-.34-1.72-.69-2.17-.71-1.59-.05-2.81.26-4.1.58-1.38.34-2.8.7-4.54.55-1.47-.12-2.81-.82-3.98-1.44-.88-.46-1.71-.9-2.38-.99-.37-.05-.74-.07-1.11-.08-1.1-.02-2.18.1-3.24.23-.1.01-.2.02-.3.04-1.53.18-2.99.32-4.47-.01-2.02-.46-3.93-.98-5.67-1.55-1.91-.62-3.09-1.88-4.04-2.9-.56-.59-1.04-1.11-1.53-1.38-.18-.09-.36-.17-.56-.24-.05-.02-.1-.04-.15-.05-.05-.02-.1-.04-.15-.05h0c-.58-.17-1.21-.28-1.83-.39-.35-.06-.69-.12-1.02-.19l.02-.11c.07-.54.22-1.05.44-1.56Z"/>
            <g>
              <circle class="cls-21" cx="39.12" cy="173.24" r="7.7"/>
              <path class="cls-6" d="m40.32,169.09c0,1.23-1,2.23-2.23,2.23s-2.23-1-2.23-2.23,1-2.23,2.23-2.23,2.23,1,2.23,2.23Z"/>
              <path class="cls-6" d="m37.09,173.95c-.45.37-1.11.3-1.48-.14-.37-.45-.3-1.11.14-1.48.45-.37,1.11-.3,1.48.14.37.45.3,1.11-.14,1.48Z"/>
              <path class="cls-11" d="m41.54,167.26c.52-.46,4.46,1.48,4.2,6.08-.28,4.97-4.75,7.18-8.11,6.15-2.28-.69-2.44-2.41-.7-3.57,1.24-.83,4.62-.7,5.46-3.01,1.03-2.83-1.47-5.11-.84-5.67Z"/>
            </g>
            <g>
              <circle class="cls-21" cx="78" cy="153.36" r="7.7" transform="translate(-85.59 100.07) rotate(-45)"/>
              <path class="cls-6" d="m79.2,149.21c0,1.23-1,2.23-2.23,2.23s-2.23-1-2.23-2.23,1-2.23,2.23-2.23,2.23,1,2.23,2.23Z"/>
              <path class="cls-6" d="m75.97,154.06c-.45.37-1.11.3-1.48-.14-.37-.45-.3-1.11.14-1.48.45-.37,1.11-.3,1.48.14.37.45.3,1.11-.14,1.48Z"/>
              <path class="cls-11" d="m80.42,147.37c.52-.46,4.46,1.48,4.2,6.08-.28,4.97-4.75,7.18-8.11,6.15-2.28-.69-2.44-2.41-.7-3.57,1.24-.83,4.62-.7,5.46-3.01,1.03-2.83-1.47-5.11-.84-5.67Z"/>
            </g>
            <g>
              <circle class="cls-21" cx="78" cy="176.44" r="7.7" transform="translate(-111.6 212) rotate(-76.77)"/>
              <path class="cls-6" d="m79.2,172.29c0,1.23-1,2.23-2.23,2.23s-2.23-1-2.23-2.23,1-2.23,2.23-2.23,2.23,1,2.23,2.23Z"/>
              <path class="cls-6" d="m75.97,177.14c-.45.37-1.11.3-1.48-.14-.37-.45-.3-1.11.14-1.48.45-.37,1.11-.3,1.48.14.37.45.3,1.11-.14,1.48Z"/>
              <path class="cls-11" d="m80.42,170.45c.52-.46,4.46,1.48,4.2,6.08-.28,4.97-4.75,7.18-8.11,6.15-2.28-.69-2.44-2.41-.7-3.57,1.24-.83,4.62-.7,5.46-3.01,1.03-2.83-1.47-5.11-.84-5.67Z"/>
            </g>
            <g>
              <circle class="cls-21" cx="48.08" cy="181.61" r="7.7" transform="translate(-139.77 183.56) rotate(-75.77)"/>
              <path class="cls-6" d="m49.28,177.45c0,1.23-1,2.23-2.23,2.23s-2.23-1-2.23-2.23,1-2.23,2.23-2.23,2.23,1,2.23,2.23Z"/>
              <path class="cls-6" d="m46.05,182.31c-.45.37-1.11.3-1.48-.14s-.3-1.11.14-1.48c.45-.37,1.11-.3,1.48.14s.3,1.11-.14,1.48Z"/>
              <path class="cls-11" d="m50.5,175.62c.52-.46,4.46,1.48,4.2,6.08-.28,4.97-4.75,7.18-8.11,6.15-2.28-.69-2.44-2.41-.7-3.57,1.24-.83,4.62-.7,5.46-3.01,1.03-2.83-1.47-5.11-.84-5.67Z"/>
            </g>
            <g>
              <circle class="cls-21" cx="66.22" cy="182.42" r="7.7" transform="translate(-109.59 100.25) rotate(-45)"/>
              <path class="cls-6" d="m67.42,178.27c0,1.23-1,2.23-2.23,2.23s-2.23-1-2.23-2.23,1-2.23,2.23-2.23,2.23,1,2.23,2.23Z"/>
              <path class="cls-6" d="m64.19,183.12c-.45.37-1.11.3-1.48-.14-.37-.45-.3-1.11.14-1.48s1.11-.3,1.48.14c.37.45.3,1.11-.14,1.48Z"/>
              <path class="cls-11" d="m68.64,176.44c.52-.46,4.46,1.48,4.2,6.08-.28,4.97-4.75,7.18-8.11,6.15-2.28-.69-2.44-2.41-.7-3.57,1.24-.83,4.62-.7,5.46-3.01,1.03-2.83-1.47-5.11-.84-5.67Z"/>
            </g>
            <path class="cls-7" d="m19.89,61.31c-1.03,0-13.38,6.01-11.95,11.13,1.9,6.79,29.6,9.23,31.63,9.1s-22.58-4.26-23.49-9.1c-1.36-7.2,6.79-11.13,3.8-11.13Z"/>
            <path class="cls-7" d="m14.28,96.34c-1.35.9,4.53,64.62,6.52,66.07,1.99,1.45-1.27-55.93-2.17-59.56-.91-3.62-3.8-6.88-4.34-6.52Z"/>
            <path class="cls-7" d="m24.19,167.21c0,1.1-.89,1.99-1.99,1.99s-1.99-.89-1.99-1.99.89-1.99,1.99-1.99,1.99.89,1.99,1.99Z"/>
            <path class="cls-7" d="m71.8,8.17l-4.95,55.64,2.96-55.78c.09-1.33,2.09-1.2,1.99.14h0Z"/>
            <path class="cls-14" d="m64.92,55.47c-3.27-.25-6.7-.39-10.28-.39-28.45,0-47.7,8.51-48.33,16.6.01.02.02.02.03.04,0,0,0,0,0,0,1.53,1.92,11.05,11.56,47.35,11.56,44.34,0,49.03-9.23,49.33-9.96.35-1.24-.18-2.61-.39-3.17-1.9-5.27-11.41-10.47-25.94-13.17l.23-2.79s.1.02.15.03c15.18,2.8,25.99,8.41,28.26,15.19l3.79,11.33.04.16c.22,1.12-.08,3.54-2.63,5.54-.72.56-1.35.95-1.94,1.22l.03-.35-.05-.21c-.07-.3-.16-.58-.25-.85l-.41-1.14-1.19.24c-.05.01-.1.01-.16.02.55-.07,1.22-.35,2.24-1.14,1.61-1.26,1.63-2.5,1.61-2.74l-1.82-5.53c-3.02,3.62-13.64,10.12-50.93,10.12-32.46,0-44.42-7.57-48.34-11.31l-2.5,6.55c.13.52.6,1.85,2.27,3.47.17.16.69.29,1.23.39l-.44,1.01c-.22.51-.36,1.02-.44,1.56l-.02.11c-.87-.18-1.67-.45-2.29-1.05C.19,83.93.02,81.5.01,81.24v-.28s2.96-7.8,2.96-7.8c0,0,.19-.46.24-.62.2-.69.43-2.14.63-2.82,2.94-9.95,24.19-17.43,50.8-17.43,3.61,0,7.11.14,10.49.4l-.21,2.78Z"/>
            <path class="cls-7" d="m4.01,83.51c1.36,1.13,2.29,1.01,4.02.59,1.83-.43,4.16.55,5.35,1.97,2.12,2.34,3.76,3.92,6.98,3.68,1.6.02,3.2.04,4.83.15,1.66.14,3.52.21,4.95,1.23,2.52,1.69,5.75,2.04,8.9,2.16,0,0,.01.3.01.3-1.59.18-3.2.26-4.83.13-1.82-.13-3.69-.66-5.34-1.53-.17-.07-.24-.1-.42-.14-3.03-.51-6.16.03-9.23.22-3.2.39-6.56-1.77-8.14-4.24-.8-1.1-1.55-1.64-2.99-1.81-.74-.05-1.9-.07-2.62-.51-.86-.47-1.46-1.2-1.73-2.04l.26-.15h0Z"/>
          </g>
          <path class="cls-1" d="m31.91,120c-.16,1.35-2.94,2.14-6.21,1.75-3.27-.39-5.79-1.8-5.63-3.16.16-1.35,2.94-2.14,6.21-1.75,3.27.39,5.79,1.8,5.63,3.16Z"/>
          <path class="cls-1" d="m63.68,119.39c.05,1.36-2.57,2.57-5.87,2.7-3.29.13-6-.88-6.05-2.24-.05-1.36,2.57-2.57,5.87-2.7,3.29-.13,6,.88,6.05,2.24Z"/>
          <path class="cls-18" d="m20.71,115.23s9.66-.69,13.63,1.03c0,0-3.62-3.62-11.9-3.62"/>
          <path class="cls-18" d="m64.74,115.57s-9.66-.69-13.63,1.03c0,0,3.62-3.62,11.9-3.62"/>
          <path class="cls-2" d="m45.61,124.69c.85,3.8.06,7.22-1.77,7.63-1.83.41-4-2.34-4.85-6.15s-.06-7.22,1.77-7.63c1.83-.41,4,2.34,4.85,6.15Z"/>
          <path class="cls-5" d="m45.61,124.69c-.2-.89-.47-1.73-.8-2.48-1.19.86-4.64,3.86-3.46,8.97.8.88,1.68,1.32,2.49,1.14,1.83-.41,2.62-3.83,1.77-7.63Z"/>
        </g>
      </g>
    </g>
  </g>
</svg>