<?xml version="1.0" encoding="UTF-8"?>
<svg id="Layer_2" data-name="Layer 2" xmlns="http://www.w3.org/2000/svg" viewBox="0 0 48.39 17.98">
  <defs>
    <style>
      .cls-1 {
        fill: #ff4881;
        opacity: .5;
      }

      .cls-1, .cls-2, .cls-3 {
        stroke-width: 0px;
      }

      .cls-4 {
        fill: none;
        stroke: #000;
        stroke-linecap: round;
        stroke-miterlimit: 10;
        stroke-width: 2px;
      }

      .cls-3 {
        fill: #fff;
      }
    </style>
  </defs>
  <g id="OBJECTS">
    <g>
      <g>
        <path class="cls-2" d="m13.85,4.4c0,2.43-1.97,4.4-4.4,4.4s-4.4-1.97-4.4-4.4S7.02,0,9.45,0s4.4,1.97,4.4,4.4Z"/>
        <path class="cls-3" d="m9.55,3.31c0,.95-.77,1.72-1.72,1.72s-1.72-.77-1.72-1.72.77-1.72,1.72-1.72,1.72.77,1.72,1.72Z"/>
        <path class="cls-3" d="m11.84,2.31c0,.55-.44.99-.99.99s-.99-.44-.99-.99.44-.99.99-.99.99.44.99.99Z"/>
      </g>
      <g>
        <path class="cls-2" d="m44.03,6.75c0,2.43-1.97,4.4-4.4,4.4s-4.4-1.97-4.4-4.4,1.97-4.4,4.4-4.4,4.4,1.97,4.4,4.4Z"/>
        <circle class="cls-3" cx="38.01" cy="5.66" r="1.72"/>
        <path class="cls-3" d="m42.02,4.66c0,.55-.44.99-.99.99s-.99-.44-.99-.99.44-.99.99-.99.99.44.99.99Z"/>
      </g>
      <path class="cls-4" d="m15.25,9.71s.7,6.52,7.4,7.22c6.69.7,9.16-6.34,9.16-6.34"/>
      <path class="cls-1" d="m11.53,11.48c-.16,1.32-2.86,2.08-6.04,1.7C2.3,12.8-.15,11.42,0,10.1c.16-1.32,2.86-2.08,6.04-1.7,3.18.38,5.63,1.75,5.48,3.07Z"/>
      <path class="cls-1" d="m48.39,13.39c.05,1.33-2.5,2.5-5.71,2.62-3.2.12-5.84-.85-5.89-2.18-.05-1.33,2.5-2.5,5.71-2.62,3.2-.12,5.84.85,5.89,2.18Z"/>
    </g>
  </g>
</svg>