<?xml version="1.0" encoding="UTF-8"?>
<svg xmlns="http://www.w3.org/2000/svg" viewBox="0 0 95.21 195.46">
  <defs>
    <style>
      .cls-1 {
        fill: #79344f;
      }

      .cls-1, .cls-2, .cls-3, .cls-4, .cls-5, .cls-6, .cls-7, .cls-8, .cls-9, .cls-10 {
        stroke-width: 0px;
      }

      .cls-2, .cls-7 {
        fill: #fff;
      }

      .cls-2, .cls-11 {
        mix-blend-mode: overlay;
        opacity: .7;
      }

      .cls-3 {
        fill: #da94ab;
      }

      .cls-4 {
        fill: #f49634;
      }

      .cls-5 {
        fill: #631134;
      }

      .cls-12 {
        isolation: isolate;
      }

      .cls-6 {
        fill: #f9c14c;
      }

      .cls-8 {
        fill: #914ea2;
      }

      .cls-9 {
        fill: #ba79ca;
      }

      .cls-10 {
        fill: #edc6f3;
      }
    </style>
  </defs>
  <g class="cls-12">
    <g id="Layer_2" data-name="Layer 2">
      <g id="OBJECTS">
        <g>
          <g>
            <g>
              <path class="cls-9" d="m94.18,62.25s-1.54,55-6.15,92.37c-2.1,16.98-4.84,30.32-8.35,33.21-11.25,9.25-63.25,10.5-70.5-7.25-1.74-4.27-3.12-13.34-4.21-24.64C1.54,120.26,1.01,62.25,1.01,62.25l29.42-4.67,63.75,4.67Z"/>
              <path class="cls-5" d="m93.18,62.25c-.04,1.53-.09,3.07-.15,4.6-.14,4.07-.3,8.14-.47,12.21-.25,5.88-.53,11.77-.85,17.65-.37,6.89-.79,13.78-1.26,20.66s-1.07,14.4-1.74,21.59-1.47,14.65-2.51,21.93c-.58,4.03-1.22,8.05-2.05,12.04-.63,3.03-1.33,6.07-2.34,9-.37,1.06-.74,2.02-1.24,3-.21.41-.44.8-.69,1.18-.05.07-.1.14-.15.22-.14.2.03-.03-.07.1-.11.14-.23.28-.36.41-.12.12-.24.22-.37.33-.08.07-.15.12-.02.02-.08.06-.15.12-.23.17-.27.2-.56.39-.85.57-.65.4-1.34.76-2.04,1.08-.74.34-1.42.61-2.32.93s-1.85.61-2.78.87c-2.11.58-4.26,1.03-6.42,1.4-4.95.83-9.99,1.2-15.02,1.25s-10.5-.24-15.67-1.04c-4.65-.72-9.45-1.82-13.7-3.71-1.85-.82-3.63-1.79-5.26-2.99-1.23-.9-2.65-2.33-3.48-3.58-.24-.36-.45-.73-.65-1.1-.09-.17-.18-.35-.26-.53-.12-.27-.08-.16-.2-.48-.43-1.13-.76-2.3-1.05-3.47-.81-3.28-1.33-6.63-1.79-9.98-.99-7.16-1.6-14.37-2.13-21.57-.5-6.74-.89-13.5-1.22-20.25s-.61-13.64-.85-20.46c-.21-6.14-.39-12.29-.54-18.43-.12-4.8-.22-9.61-.3-14.41-.05-2.71-.09-5.42-.12-8.13,0-.36,0-.71-.01-1.07l-.73.96c2.2-.35,4.4-.7,6.6-1.05l13.02-2.07,9.26-1.47c.09-.01.47-.01.53-.08-.11.12-.41.01-.03.05.59.06,1.19.09,1.78.13l7.92.58,11.85.87,13.53.99,12.96.95,10.15.74c1.7.12,3.4.29,5.09.37.08,0,.16.01.23.02,1.28.09,1.28-1.91,0-2l-3.55-.26-9.14-.67-12.55-.92-13.59-1-12.45-.91-9.05-.66-2.56-.19c-.38-.03-.75-.08-1.12-.03-2.26.33-4.51.72-6.77,1.07l-13.04,2.07-9.13,1.45-.48.08c-.42.07-.74.56-.73.96.01,1.48.03,2.97.05,4.45.06,3.96.13,7.91.21,11.87.12,5.69.26,11.38.43,17.06.2,6.68.43,13.36.71,20.04s.64,13.86,1.06,20.79c.4,6.45.86,12.89,1.48,19.32.41,4.31.89,8.61,1.52,12.9.47,3.19,1,6.4,1.86,9.51.53,1.93,1.22,3.81,2.41,5.44s2.54,2.86,4.1,3.99c3.59,2.59,7.89,4.15,12.13,5.27,5.06,1.33,10.29,2.03,15.5,2.35s10.67.27,15.98-.19c4.7-.41,9.42-1.1,13.96-2.38,1.83-.52,3.64-1.14,5.37-1.94,1.35-.62,2.78-1.38,3.85-2.43,1.42-1.39,2.21-3.42,2.88-5.25,1.06-2.89,1.77-5.91,2.41-8.91,1.67-7.91,2.71-15.97,3.62-24,.8-7.05,1.45-14.12,2.02-21.2s1.08-14.45,1.53-21.68c.4-6.57.76-13.14,1.07-19.71.25-5.13.47-10.27.66-15.41.11-2.92.22-5.83.31-8.75.01-.38.02-.76.03-1.15.04-1.29-1.96-1.29-2,0Z"/>
            </g>
            <g>
              <path class="cls-10" d="m94.18,62.25c0,.16,0,.32-.02.47-.16,5.42-1.77,56.55-6.13,91.9-5.93,9.97-17.58,20.21-40.43,21.21-26.1,1.14-37.58-10.08-42.63-19.89C1.54,120.26,1.01,62.25,1.01,62.25c0-10.13,20.86-18.34,46.59-18.34s46.58,8.21,46.58,18.34Z"/>
              <path class="cls-5" d="m93.18,62.25c-.07,2.75-.18,5.5-.28,8.25-.19,5.22-.41,10.43-.66,15.65-.32,6.86-.69,13.72-1.1,20.58-.46,7.65-.99,15.29-1.62,22.92s-1.31,14.95-2.18,22.4c-.1.86-.2,1.71-.31,2.57l.14-.5c-2.7,4.52-6.26,8.52-10.52,11.62-5.57,4.06-12.06,6.57-18.79,7.9-4.31.85-8.7,1.22-13.09,1.27-4.09.04-8.19-.22-12.22-.96-6.06-1.11-11.93-3.29-16.92-6.95-3.75-2.74-6.79-6.24-9.07-10.24-.25-.44-.49-.88-.72-1.32l.14.5c-.71-7.35-1.22-14.72-1.65-22.09-.46-7.87-.82-15.75-1.12-23.63-.28-7.27-.51-14.54-.69-21.82-.15-5.64-.27-11.29-.36-16.94-.05-2.9-.09-5.8-.12-8.7-.01-1.07.04-1.77.41-2.81.69-1.96,2.36-3.75,4.13-5.15,2.4-1.89,5.22-3.3,8.05-4.44,3.66-1.47,7.49-2.53,11.35-3.35,9.37-1.97,19.07-2.48,28.62-1.91,8.56.51,17.26,1.89,25.3,4.97,2.93,1.13,5.81,2.53,8.34,4.4,1.85,1.37,3.58,3.11,4.43,5.13.36.85.54,1.75.54,2.64,0,1.29,2.01,1.29,2,0-.03-5.1-4.45-8.8-8.5-11.15-6.51-3.78-14.11-5.68-21.49-6.85-9.48-1.5-19.18-1.74-28.73-.82-8.11.78-16.29,2.35-23.8,5.59-4.74,2.05-10.24,5.17-12.13,10.3-.72,1.95-.51,4.1-.48,6.14.06,4.19.13,8.37.21,12.56.13,6.36.29,12.71.48,19.07.23,7.52.5,15.03.84,22.55s.76,15.31,1.29,22.95c.25,3.55.52,7.09.84,10.63.08.85.15,1.7.24,2.55.07.65.42,1.2.74,1.76.55.98,1.14,1.93,1.78,2.85,3.02,4.35,6.99,7.96,11.6,10.57,6.25,3.55,13.39,5.21,20.51,5.75,8.75.66,17.89-.09,26.26-2.82,6.35-2.07,12.28-5.39,17.12-10.02,2.02-1.93,3.83-4.09,5.41-6.39.36-.52.7-1.04,1.03-1.57.16-.26.35-.51.48-.79.22-.46.21-1.09.27-1.6.23-1.9.45-3.8.65-5.7.88-8.1,1.58-16.22,2.19-24.34.6-8.02,1.11-16.06,1.56-24.09.38-6.81.71-13.62,1-20.43.19-4.45.36-8.91.51-13.37.04-1.11.08-2.23.11-3.34.03-1.29-1.97-1.29-2,0Z"/>
            </g>
            <g>
              <g>
                <path class="cls-5" d="m46.76,192.42c3.14.05,6.3-.14,9.43-.42,5.78-.53,11.73-1.41,17.09-3.74,2.55-1.11,5.02-2.65,6.6-5,.72-1.07-1.01-2.07-1.73-1.01-.28.42-.5.68-.91,1.11-.35.36-.85.79-1.14,1.02-.99.75-2.09,1.36-3.21,1.88-2.46,1.14-5.19,1.89-7.87,2.45-4.93,1.05-9.98,1.5-15.02,1.67-1.08.03-2.16.06-3.24.04-1.29-.02-1.29,1.98,0,2h0Z"/>
                <path class="cls-5" d="m54.53,188.08c1.74.1,3.52-.03,5.25-.23,4.04-.46,7.97-1.46,11.7-3.08.5-.21.61-.94.36-1.37-.3-.51-.87-.57-1.37-.36-3.48,1.51-7.25,2.44-11.03,2.84-1.62.17-3.29.29-4.92.19-1.29-.08-1.28,1.92,0,2h0Z"/>
              </g>
              <g>
                <path class="cls-5" d="m6.72,60.12c.11-.1.22-.19.33-.28.13-.11.26-.21.39-.32.08-.07.16-.13.25-.2.26-.2-.09.07.16-.12,1.2-.9,2.44-1.74,3.72-2.52,4.22-2.58,8.82-4.52,13.6-5.79,3.55-.94,7.19-1.49,10.86-1.64,1.28-.05,1.29-2.05,0-2-6.37.27-12.63,1.68-18.5,4.16-3.66,1.55-7.19,3.47-10.38,5.85-.62.46-1.24.93-1.82,1.45-.96.86.46,2.28,1.41,1.41h0Z"/>
                <path class="cls-5" d="m14.93,58.45c1.36-.77,2.83-1.39,4.29-1.96,3.66-1.42,7.48-2.41,11.36-2.94.54-.07.83-.76.7-1.23-.16-.58-.69-.77-1.23-.7-3.94.54-7.8,1.55-11.5,3-1.57.61-3.16,1.27-4.63,2.1-1.12.64-.11,2.36,1.01,1.73h0Z"/>
              </g>
            </g>
          </g>
          <path class="cls-5" d="m93.18,62.25c0,.24-.02.49-.04.73,0,.06-.01.12-.02.18,0-.02.02-.16,0-.04-.02.14-.05.27-.07.4-.1.48-.25.96-.44,1.42.07-.17-.08.17-.09.2-.05.1-.1.2-.15.3-.13.25-.27.49-.42.73-.32.5-.55.82-.9,1.22-1.71,2-3.9,3.49-6.2,4.74-6.61,3.6-14.24,5.34-21.63,6.4-9.29,1.33-18.82,1.41-28.15.39-7.7-.84-15.62-2.44-22.67-5.75-2.55-1.2-5.05-2.63-7.1-4.56-.86-.81-1.52-1.57-2.11-2.52-.13-.21-.25-.42-.36-.64-.05-.1-.1-.2-.15-.3-.03-.06-.05-.12-.08-.17-.13-.28.04.09-.03-.07-.19-.46-.33-.93-.43-1.42-.14-.7-.14-1.84.02-2.55.23-1.05.52-1.69,1.09-2.6,1.22-1.94,3.21-3.58,5.23-4.86,6.04-3.84,13.28-5.74,20.25-6.98,9.22-1.64,18.71-1.95,28.04-1.22,8.1.64,16.32,2.08,23.88,5.13,2.77,1.12,5.52,2.5,7.89,4.33.92.71,1.83,1.55,2.59,2.46.31.37.58.73.88,1.22.13.21.25.42.36.64.06.11.12.23.17.35.03.06.05.12.08.17.07.16-.08-.21.03.07.39.98.53,1.69.53,2.6,0,1.29,2.01,1.29,2,0-.03-5.25-4.7-9.01-8.88-11.36-6.8-3.82-14.69-5.71-22.34-6.81-9.69-1.4-19.59-1.55-29.31-.44-8.08.92-16.3,2.62-23.67,6.17-4.42,2.13-9.82,5.58-10.8,10.82s2.88,9.22,6.84,11.84c2.81,1.86,5.93,3.23,9.09,4.36,3.86,1.37,7.86,2.35,11.89,3.08,9.57,1.72,19.41,2.09,29.1,1.3,8.4-.68,16.95-2.18,24.76-5.45,4.94-2.07,10.71-5.16,12.76-10.45.37-.97.56-2.01.57-3.05,0-1.29-1.99-1.29-2,0Z"/>
          <g>
            <g>
              <path class="cls-9" d="m9.01,98.08s-3.83,49.83,8.84,59,24,9.83,31.5,9.17c7.5-.67,21.5-4.33,27.33-13.83s7.58-52.33,7.58-52.33l-36.66-2H9.01Z"/>
              <path class="cls-5" d="m8.01,98.08c-.19,2.53-.3,5.07-.39,7.61-.2,5.8-.22,11.61.01,17.4.27,6.57.81,13.2,2.18,19.64.6,2.82,1.37,5.6,2.5,8.26.9,2.12,2.05,4.2,3.7,5.84,1.4,1.38,3.16,2.43,4.83,3.46,2.32,1.43,4.75,2.67,7.26,3.72,4.14,1.72,8.51,2.81,12.97,3.24,7.09.67,14.34-.43,21-2.91s13.81-6.8,16.6-13.77c.95-2.36,1.55-4.86,2.07-7.34.68-3.18,1.19-6.4,1.63-9.62.94-6.77,1.58-13.59,2.09-20.4.31-4.17.57-8.34.76-12.51,0-.2.02-.41.03-.61.02-.56-.48-.97-1-1-4.33-.24-8.65-.47-12.98-.71-6.64-.36-13.29-.72-19.93-1.09-2.5-.14-4.96-.2-7.47-.2H9.01c-1.29,0-1.29,2,0,2h33.06c2.59,0,5.16-.02,7.74.12,6.3.34,12.61.69,18.91,1.03,5.09.28,10.18.56,15.27.83h.26c-.33-.32-.67-.65-1-.99-.12,2.9-.29,5.79-.48,8.68-.41,6.36-.94,12.72-1.67,19.05s-1.52,12.47-3.16,18.5c-.31,1.13-.65,2.26-1.07,3.35-.23.6-.24.63-.51,1.2-.21.43-.44.84-.69,1.25-2.15,3.4-5.4,5.96-8.89,7.89-6.19,3.42-13.43,5.23-20.44,5.41-8.99.24-17.65-2.48-25.2-7.29-.57-.37-1.14-.74-1.7-1.13-.3-.21-.61-.42-.91-.64.01,0-.53-.4-.3-.22-.39-.31-.76-.65-1.1-1.02-.72-.77-1.18-1.43-1.78-2.45-1.29-2.21-2.07-4.45-2.78-6.97-1.68-6.03-2.35-12.28-2.75-18.51s-.45-12.17-.32-18.25c.08-3.46.21-6.92.45-10.37.01-.16.02-.33.03-.49.1-1.28-1.9-1.28-2,0Z"/>
            </g>
            <g>
              <ellipse class="cls-8" cx="46.64" cy="98.87" rx="37.62" ry="11.04"/>
              <path class="cls-5" d="m83.26,98.87c0,.08-.05.52,0,.22-.02.14-.05.28-.09.42s-.09.28-.14.41c.1-.24-.12.22-.16.3-.08.14-.17.27-.26.4-.02.03-.19.24-.04.06-.05.07-.11.13-.16.2-.26.3-.54.58-.84.83-1.3,1.12-3.22,2.08-4.96,2.76-5.53,2.19-11.55,3.19-17.43,3.8-7.52.78-15.15.84-22.69.22-6.17-.51-12.43-1.43-18.3-3.46-1.99-.69-3.98-1.53-5.72-2.74-.55-.38-1.09-.83-1.61-1.42-.06-.06-.11-.13-.16-.2.14.18-.02-.03-.04-.06-.09-.13-.18-.26-.26-.4s-.14-.27-.21-.41c.11.23-.07-.22-.1-.31-.04-.14-.07-.28-.09-.42.05.3,0-.14,0-.22s.05-.52,0-.22c.03-.16.06-.33.11-.48.02-.07.19-.48.08-.24.06-.14.13-.27.21-.41.24-.41.28-.46.52-.72,1.13-1.28,2.61-2.11,4.23-2.88,2.26-1.07,4.68-1.81,7.09-2.42,3-.76,6.05-1.32,9.12-1.72,7.45-.97,15.01-1.17,22.51-.74,6.53.37,13.13,1.2,19.41,3.09,2.16.65,4.3,1.43,6.27,2.54.79.45,1.49.91,2.08,1.43.27.24.53.5.77.77.06.06.11.13.16.2-.14-.18.02.03.04.06.1.15.21.31.3.47.04.07.23.49.13.24.05.13.1.27.14.41s.07.28.09.42c-.05-.3,0,.14,0,.22.01,1.29,2.01,1.29,2,0-.04-3.73-4.29-5.92-7.24-7.17-5.71-2.42-11.98-3.48-18.11-4.16-7.87-.87-15.87-.94-23.76-.27-6.44.55-13.03,1.5-19.14,3.73-2.07.76-4.17,1.66-5.94,2.99-1.29.96-2.54,2.2-2.94,3.82-.88,3.6,2.77,6.14,5.54,7.52,5.25,2.62,11.24,3.77,17.01,4.55,7.82,1.06,15.76,1.29,23.64.81,6.73-.41,13.57-1.28,20.03-3.3,2.3-.72,4.6-1.59,6.66-2.84,1.44-.87,2.93-2.01,3.7-3.55.33-.67.53-1.38.54-2.13.01-1.29-1.99-1.29-2,0Z"/>
            </g>
          </g>
          <g>
            <g>
              <g>
                <path class="cls-1" d="m37.39,135.67c-.16,3.44-3.08,6.11-6.53,5.94-3.45-.16-6.11-3.08-5.95-6.53.16-3.44,3.08-6.11,6.53-5.95,3.45.16,6.11,3.08,5.95,6.53Z"/>
                <path class="cls-5" d="m36.47,135.67c-.13,2.2-1.63,4.15-3.75,4.79s-4.51-.12-5.84-1.92-1.37-4.28-.13-6.15,3.53-2.71,5.64-2.2c2.51.61,4.16,2.91,4.08,5.47-.04,1.19,1.81,1.19,1.85,0,.1-2.96-1.64-5.73-4.37-6.89s-6.1-.46-8.1,1.79-2.42,5.56-.99,8.22,4.4,4.09,7.34,3.68c3.42-.48,5.92-3.39,6.13-6.79.07-1.19-1.78-1.18-1.85,0Z"/>
              </g>
              <path class="cls-3" d="m34.32,133.59c-.05,1.11-.99,1.96-2.1,1.91-1.11-.05-1.96-.99-1.91-2.1.05-1.11.99-1.96,2.1-1.91,1.11.05,1.96.99,1.91,2.1Z"/>
            </g>
            <g>
              <g>
                <path class="cls-1" d="m72.92,139.29c-.16,3.44-3.08,6.11-6.53,5.94-3.45-.16-6.11-3.08-5.95-6.53.16-3.44,3.08-6.11,6.53-5.95,3.45.16,6.11,3.08,5.95,6.53Z"/>
                <path class="cls-5" d="m71.99,139.29c-.13,2.2-1.63,4.15-3.75,4.79s-4.51-.12-5.84-1.92-1.37-4.28-.13-6.15,3.53-2.71,5.64-2.2c2.51.61,4.16,2.91,4.08,5.47-.04,1.19,1.81,1.19,1.85,0,.1-2.96-1.64-5.73-4.37-6.89s-6.1-.46-8.1,1.79-2.42,5.56-.99,8.22,4.4,4.09,7.34,3.68c3.42-.48,5.92-3.39,6.13-6.79.07-1.19-1.78-1.18-1.85,0Z"/>
              </g>
              <path class="cls-3" d="m69.85,137.21c-.05,1.11-.99,1.96-2.1,1.91-1.11-.05-1.96-.99-1.91-2.1.05-1.11.99-1.96,2.1-1.91,1.11.05,1.96.99,1.91,2.1Z"/>
            </g>
          </g>
          <g>
            <g>
              <g>
                <path class="cls-6" d="m63.62,108.72l-.64,6.9-1.31,14.37h0s-2.02,22.09-2.02,22.09c-17.54,7.75-26.47-1.75-26.47-1.75l1.38-15.12,1.03-11.33,1.31-14.35c3.1.25,6.36.38,9.73.38,6.11,0,11.89-.43,16.99-1.19Z"/>
                <path class="cls-5" d="m62.62,108.72c-.23,2.45-.46,4.9-.68,7.35l-.98,10.78c-.16,1.7-.31,3.4-.46,5.1l-1.03,11.3-.51,5.62c-.09,1.01-.25,2.03-.28,3.05,0,.05,0,.1-.01.15l.5-.86c-4.96,2.18-10.57,3.52-15.99,2.65-3.02-.49-5.71-1.49-8.17-3.3-.05-.04-.1-.07-.14-.11-.22-.16.11.09-.02-.01-.08-.06-.16-.12-.23-.19-.13-.11-.26-.22-.39-.34-.11-.1-.21-.2-.31-.3l.29.71c.47-5.1.93-10.19,1.4-15.29s.95-10.48,1.43-15.71c.3-3.26.6-6.53.89-9.79l-1,1c8.98.71,18.07.47,26.99-.85.53-.08.83-.75.7-1.23-.16-.57-.69-.78-1.23-.7-8.73,1.29-17.67,1.47-26.45.77-.57-.05-.95.5-1,1-.41,4.45-.81,8.9-1.22,13.34-.35,3.88-.71,7.77-1.06,11.65s-.74,8.07-1.1,12.1l-.28,3.05c-.05.54-.14.96.28,1.41.89.96,2.1,1.72,3.23,2.35,6.29,3.51,13.89,3.23,20.57,1.01,1.3-.43,2.58-.95,3.84-1.5.33-.15.47-.54.5-.86.22-2.42.44-4.84.66-7.26l1.08-11.84c.15-1.64.3-3.28.45-4.91l1.02-11.2c.23-2.57.47-5.13.71-7.7l.04-.44c.05-.54-.5-1-1-1-.58,0-.95.46-1,1Z"/>
              </g>
              <g>
                <path class="cls-4" d="m62.98,115.62l-1.31,14.37h0c-4.69,3.51-14.54,8.95-27.11,5.22l1.03-11.33c5.27.12,18.09-.48,27.39-8.26Z"/>
                <path class="cls-5" d="m61.98,115.62c-.38,4.22-.77,8.44-1.15,12.66-.05.57-.16,1.15-.16,1.72l.5-.86c-5.36,3.99-11.86,6.43-18.59,6.32-2.63-.04-5.23-.48-7.75-1.22l.73.96c.3-3.3.6-6.6.9-9.9l.13-1.43-1,1c7.28.16,14.78-1.08,21.38-4.24,2.41-1.16,4.66-2.6,6.72-4.31.99-.82-.43-2.23-1.41-1.41-6.2,5.15-14.38,7.39-22.31,7.88-1.46.09-2.92.12-4.38.09-.58-.01-.95.47-1,1-.3,3.3-.6,6.6-.9,9.9l-.13,1.43c-.04.44.34.85.73.96,4.6,1.35,9.43,1.65,14.15.79,3.65-.67,7.17-2.03,10.37-3.89.64-.37,1.28-.77,1.9-1.18.54-.36,1.2-.72,1.66-1.18.4-.4.35-1.32.4-1.85l.67-7.41c.18-1.94.35-3.89.53-5.83.05-.54-.49-1-1-1-.58,0-.95.46-1,1Z"/>
              </g>
            </g>
            <g>
              <g>
                <path class="cls-6" d="m72.89,7.33l-1.19,13.06-1.1,11.94-1.96,21.43-1.24,13.59-1.84,20.13-1.22,13.32c-9.77,1.77-21.17.71-26.65.01l.65-7.08,2.07-22.68.99-10.84,2.23-24.46.85-9.37,1.91-20.89s.01-.11.01-.16l26.49,2Z"/>
                <path class="cls-5" d="m71.89,7.33c-.31,3.39-.62,6.78-.93,10.18-.23,2.56-.47,5.12-.7,7.68s-.48,5.24-.72,7.87l-1.02,11.17c-.29,3.15-.58,6.3-.86,9.44s-.55,6.06-.83,9.09c-.2,2.17-.4,4.35-.6,6.52l-1.13,12.36c-.2,2.21-.4,4.42-.61,6.64l-1.06,11.52-.09,1,.73-.96c-7.23,1.29-14.72,1.12-22,.45-1.46-.13-2.92-.29-4.38-.48l1,1c.24-2.56.47-5.12.7-7.68l1-10.99.97-10.66c.27-2.92.53-5.84.8-8.75.19-2.05.37-4.09.56-6.14l1.19-13.06c.24-2.6.47-5.19.71-7.79.28-3.12.57-6.25.85-9.37.27-2.94.54-5.89.81-8.83l1.04-11.41c.02-.27.05-.54.07-.8l-1,1c2.99.23,5.97.45,8.96.68l14.27,1.08,3.27.25c1.28.1,1.28-1.9,0-2-2.99-.23-5.97-.45-8.96-.68l-14.27-1.08-3.27-.25c-.56-.04-.97.49-1,1-.19,2.94-.53,5.88-.8,8.81l-1.05,11.52c-.26,2.87-.52,5.73-.78,8.6-.19,2.1-.38,4.21-.57,6.31l-1.21,13.28c-.2,2.23-.41,4.47-.61,6.7-.32,3.48-.64,6.97-.95,10.45-.24,2.59-.47,5.19-.71,7.78l-1.15,12.65c-.23,2.56-.47,5.11-.7,7.67l-.16,1.71c-.05.59.51.94,1,1,6.67.85,13.46,1.23,20.17.77,2.26-.16,4.51-.42,6.74-.82.46-.08.7-.55.73-.96.31-3.39.62-6.77.93-10.16.19-2.06.38-4.13.57-6.19l1.16-12.69c.19-2.06.38-4.12.56-6.17l1.04-11.42c.2-2.24.41-4.48.61-6.71l1.15-12.59c.19-2.12.39-4.24.58-6.37.27-2.91.54-5.82.8-8.73l1.04-11.42.09-1.01c.05-.54-.49-1-1-1-.58,0-.95.46-1,1Z"/>
              </g>
              <path class="cls-5" d="m66.42,99.37c-4.78,1.1-9.71,1.42-14.61,1.4-4.11-.02-8.21-.28-12.29-.74-1.61-.18-3.22-.39-4.82-.66-.53-.09-1.08.14-1.23.7-.13.48.16,1.14.7,1.23,3.33.57,6.72.93,10.09,1.17,4.67.34,9.37.43,14.05.08,2.9-.22,5.81-.6,8.65-1.26,1.25-.29.72-2.22-.53-1.93h0Z"/>
              <g>
                <g>
                  <path class="cls-4" d="m71.7,20.39l-1.1,11.94c-5.25,2.84-15.87,7.16-26.97,3.42l.85-9.37c4.82,1.04,15.32,1.89,27.22-5.99Z"/>
                  <path class="cls-5" d="m70.7,20.39c-.32,3.48-.64,6.96-.96,10.43-.05.5-.09,1-.14,1.51l.5-.86c-5.83,3.14-12.48,5.07-19.14,4.69-2.41-.14-4.77-.61-7.06-1.37l.73.96c.28-3.12.57-6.25.85-9.37l-1.27.96c6.73,1.44,13.86.58,20.21-1.99,2.73-1.1,5.32-2.48,7.78-4.1,1.07-.7.07-2.44-1.01-1.73-6.73,4.43-14.63,7.04-22.74,6.42-1.32-.1-2.39-.25-3.71-.53-.68-.15-1.21.3-1.27.96-.28,3.12-.57,6.25-.85,9.37-.04.45.34.83.73.96,7.7,2.56,16.05,1.58,23.46-1.49,1.36-.57,2.7-1.18,4-1.88.78-.42.78-1.01.84-1.76l.57-6.15c.15-1.68.31-3.36.46-5.04.05-.54-.5-1-1-1-.58,0-.95.46-1,1Z"/>
                </g>
                <g>
                  <path class="cls-4" d="m68.64,53.76l-1.24,13.59c-4.77,2.61-14.65,6.57-26.99,3.7l.99-10.84c5.3-.2,18.91-1.21,27.24-6.45Z"/>
                  <path class="cls-5" d="m67.64,53.76c-.36,3.97-.72,7.94-1.09,11.91l-.15,1.68.5-.86c-5.66,3.09-12.13,4.68-18.58,4.56-2.58-.05-5.13-.38-7.64-.96l.73.96c.29-3.16.58-6.32.87-9.48l.12-1.36-1,1c7.23-.28,14.67-1.2,21.51-3.65,2.17-.78,4.28-1.72,6.24-2.94,1.09-.68.09-2.41-1.01-1.73-3.41,2.13-7.28,3.4-11.17,4.32-3.63.86-7.32,1.39-11.03,1.71-1.51.13-3.02.23-4.53.28-.58.02-.95.44-1,1-.29,3.16-.58,6.32-.87,9.48l-.12,1.36c-.04.42.34.87.73.96,8.09,1.86,16.57,1.13,24.21-2.1.67-.28,1.33-.58,1.98-.89.54-.26,1.2-.51,1.67-.89s.44-1.29.49-1.87l.63-6.94c.17-1.85.34-3.71.51-5.56.05-.54-.49-1-1-1-.58,0-.95.46-1,1Z"/>
                </g>
                <g>
                  <path class="cls-4" d="m65.56,87.48l-1.22,13.32c-9.77,1.77-21.17.71-26.65.01l.65-7.08c5.27.15,17.37-.26,27.22-6.25Z"/>
                  <path class="cls-5" d="m64.56,87.48c-.36,3.89-.71,7.77-1.07,11.66l-.15,1.66.73-.96c-7.23,1.29-14.72,1.12-22,.45-1.46-.13-2.92-.29-4.38-.48l1,1,.65-7.08-1,1c7.01.19,14.22-.7,20.82-3.11,2.4-.87,4.72-1.95,6.9-3.27,1.1-.66.1-2.39-1.01-1.73-6.71,4.05-14.63,5.75-22.39,6.08-1.44.06-2.88.07-4.32.03-.58-.02-.95.47-1,1l-.65,7.08c-.05.59.51.94,1,1,6.67.85,13.46,1.23,20.17.77,2.26-.16,4.51-.42,6.74-.82.46-.08.7-.55.73-.96.36-3.89.71-7.77,1.07-11.66l.15-1.66c.05-.54-.49-1-1-1-.58,0-.95.46-1,1Z"/>
                </g>
              </g>
              <g>
                <path class="cls-4" d="m72.89,7.33c-.22,2.89-6.32,4.79-13.64,4.24-7.32-.55-13.07-3.34-12.85-6.23.22-2.89,6.33-4.79,13.64-4.24,7.32.55,13.07,3.34,12.85,6.23Z"/>
                <path class="cls-5" d="m71.89,7.33c.02-.2-.04.16-.06.23-.06.2.02,0-.08.19-.16.28-.21.34-.48.6-.46.43-1.08.77-1.7,1.04-1.87.81-3.99,1.11-6.01,1.23-2.53.15-5.1,0-7.59-.46-2.1-.39-4.23-.97-6.11-2.01-.64-.35-1.26-.76-1.78-1.29-.25-.26-.32-.36-.51-.67-.1-.16-.07-.11-.1-.21-.03-.08-.1-.46-.08-.28-.05-.43.08-.75.29-1.03.42-.53.95-.85,1.55-1.16,1.69-.86,3.68-1.21,5.55-1.39,2.54-.23,5.14-.15,7.66.25,2.36.37,4.78.97,6.89,2.12.74.4,1.44.87,2,1.49.15.17.12.13.24.32.04.06.07.12.11.18,0,0,.14.29.07.12.05.13.09.27.12.41.03.17,0-.23,0,.05,0,.09,0,.18,0,.27-.07,1.29,1.93,1.28,2,0,.09-1.74-1.26-3.09-2.58-3.99-1.9-1.3-4.21-2.04-6.43-2.54-2.85-.64-5.81-.9-8.73-.77-2.4.11-4.87.45-7.09,1.38-1.48.62-3.14,1.63-3.56,3.3s.57,3.11,1.79,4.1c1.76,1.42,3.97,2.24,6.14,2.81,2.77.73,5.67,1.06,8.54,1.04s5.65-.32,8.21-1.38c1.75-.72,3.53-1.91,3.72-3.95.05-.54-.5-1-1-1-.58,0-.95.46-1,1Z"/>
              </g>
            </g>
          </g>
          <g>
            <g class="cls-11">
              <path class="cls-7" d="m13.67,111.21c1.74.97,3.64,1.7,5.5,2.37,4.65,1.68,9.52,2.72,14.43,3.26,3.72.41,7.47.5,11.2.28.81-.05,1.5-.66,1.5-1.5,0-.78-.69-1.55-1.5-1.5-6.05.35-12.06-.09-17.93-1.42-2.11-.48-4.19-1.07-6.23-1.77-.77-.27-1.53-.55-2.28-.85-.18-.07-.35-.14-.53-.21-.07-.03-.14-.06-.21-.09-.2-.08.36.16.08.03s-.57-.25-.85-.38c-.56-.25-1.13-.52-1.66-.82-1.69-.95-3.2,1.65-1.51,2.59h0Z"/>
            </g>
            <path class="cls-2" d="m52.61,115.62c0,1.14-.92,2.06-2.06,2.06s-2.06-.92-2.06-2.06.92-2.06,2.06-2.06,2.06.92,2.06,2.06Z"/>
          </g>
          <g>
            <g>
              <g>
                <path class="cls-1" d="m37.39,145.04c-.16,3.44-3.08,6.11-6.53,5.94-3.45-.16-6.11-3.08-5.95-6.53.16-3.44,3.08-6.11,6.53-5.95,3.45.16,6.11,3.08,5.95,6.53Z"/>
                <path class="cls-5" d="m36.47,145.04c-.13,2.2-1.63,4.15-3.75,4.79s-4.51-.12-5.84-1.92-1.37-4.28-.13-6.15,3.53-2.71,5.64-2.2c2.51.61,4.16,2.91,4.08,5.47-.04,1.19,1.81,1.19,1.85,0,.1-2.96-1.64-5.73-4.37-6.89s-6.1-.46-8.1,1.79-2.42,5.56-.99,8.22,4.4,4.09,7.34,3.68c3.42-.48,5.92-3.39,6.13-6.79.07-1.19-1.78-1.18-1.85,0Z"/>
              </g>
              <path class="cls-3" d="m34.32,142.97c-.05,1.11-.99,1.96-2.1,1.91-1.11-.05-1.96-.99-1.91-2.1.05-1.11.99-1.96,2.1-1.91,1.11.05,1.96.99,1.91,2.1Z"/>
            </g>
            <g>
              <g>
                <path class="cls-1" d="m26.91,132.55c-.16,3.44-3.08,6.11-6.53,5.94-3.45-.16-6.11-3.08-5.95-6.53.16-3.44,3.08-6.11,6.53-5.95,3.45.16,6.11,3.08,5.95,6.53Z"/>
                <path class="cls-5" d="m25.98,132.55c-.13,2.2-1.63,4.15-3.75,4.79s-4.51-.12-5.84-1.92-1.37-4.28-.13-6.15,3.53-2.71,5.64-2.2c2.51.61,4.16,2.91,4.08,5.47-.04,1.19,1.81,1.19,1.85,0,.1-2.96-1.64-5.73-4.37-6.89s-6.1-.46-8.1,1.79-2.42,5.56-.99,8.22,4.4,4.09,7.34,3.68c3.42-.48,5.92-3.39,6.13-6.79.07-1.19-1.78-1.18-1.85,0Z"/>
              </g>
              <path class="cls-3" d="m23.84,130.48c-.05,1.11-.99,1.96-2.1,1.91-1.11-.05-1.96-.99-1.91-2.1.05-1.11.99-1.96,2.1-1.91,1.11.05,1.96.99,1.91,2.1Z"/>
            </g>
            <g>
              <g>
                <path class="cls-1" d="m29.98,149.17c-.16,3.44-3.08,6.11-6.53,5.94-3.45-.16-6.11-3.08-5.95-6.53.16-3.44,3.08-6.11,6.53-5.95,3.45.16,6.11,3.08,5.95,6.53Z"/>
                <path class="cls-5" d="m29.05,149.17c-.13,2.2-1.63,4.15-3.75,4.79s-4.51-.12-5.84-1.92-1.37-4.28-.13-6.15,3.53-2.71,5.64-2.2c2.51.61,4.16,2.91,4.08,5.47-.04,1.19,1.81,1.19,1.85,0,.1-2.96-1.64-5.73-4.37-6.89s-6.1-.46-8.1,1.79-2.42,5.56-.99,8.22,4.4,4.09,7.34,3.68c3.42-.48,5.92-3.39,6.13-6.79.07-1.19-1.78-1.18-1.85,0Z"/>
              </g>
              <path class="cls-3" d="m26.91,147.1c-.05,1.11-.99,1.96-2.1,1.91-1.11-.05-1.96-.99-1.91-2.1.05-1.11.99-1.96,2.1-1.91,1.11.05,1.96.99,1.91,2.1Z"/>
            </g>
            <g>
              <g>
                <path class="cls-1" d="m44.81,151.9c-.16,3.44-3.08,6.11-6.53,5.94-3.45-.16-6.11-3.08-5.95-6.53.16-3.44,3.08-6.11,6.53-5.95,3.45.16,6.11,3.08,5.95,6.53Z"/>
                <path class="cls-5" d="m43.88,151.9c-.13,2.2-1.63,4.15-3.75,4.79s-4.51-.12-5.84-1.92-1.37-4.28-.13-6.15,3.53-2.71,5.64-2.2c2.51.61,4.16,2.91,4.08,5.47-.04,1.19,1.81,1.19,1.85,0,.1-2.96-1.64-5.73-4.37-6.89s-6.1-.46-8.1,1.79-2.42,5.56-.99,8.22,4.4,4.09,7.34,3.68c3.42-.48,5.92-3.39,6.13-6.79.07-1.19-1.78-1.18-1.85,0Z"/>
              </g>
              <path class="cls-3" d="m41.74,149.83c-.05,1.11-.99,1.96-2.1,1.91-1.11-.05-1.96-.99-1.91-2.1.05-1.11.99-1.96,2.1-1.91,1.11.05,1.96.99,1.91,2.1Z"/>
            </g>
            <g>
              <g>
                <path class="cls-1" d="m64.11,152.03c-.16,3.44-3.08,6.11-6.53,5.94-3.45-.16-6.11-3.08-5.95-6.53.16-3.44,3.08-6.11,6.53-5.95,3.45.16,6.11,3.08,5.95,6.53Z"/>
                <path class="cls-5" d="m63.19,152.03c-.13,2.2-1.63,4.15-3.75,4.79s-4.51-.12-5.84-1.92-1.37-4.28-.13-6.15,3.53-2.71,5.64-2.2c2.51.61,4.16,2.91,4.08,5.47-.04,1.19,1.81,1.19,1.85,0,.1-2.96-1.64-5.73-4.37-6.89s-6.1-.46-8.1,1.79-2.42,5.56-.99,8.22,4.4,4.09,7.34,3.68c3.42-.48,5.92-3.39,6.13-6.79.07-1.19-1.78-1.18-1.85,0Z"/>
              </g>
              <path class="cls-3" d="m61.04,149.96c-.05,1.11-.99,1.96-2.1,1.91-1.11-.05-1.96-.99-1.91-2.1.05-1.11.99-1.96,2.1-1.91,1.11.05,1.96.99,1.91,2.1Z"/>
            </g>
            <g>
              <g>
                <path class="cls-1" d="m72.39,148.15c-.16,3.44-3.08,6.11-6.53,5.94-3.45-.16-6.11-3.08-5.95-6.53.16-3.44,3.08-6.11,6.53-5.95,3.45.16,6.11,3.08,5.95,6.53Z"/>
                <path class="cls-5" d="m71.46,148.15c-.13,2.2-1.63,4.15-3.75,4.79s-4.51-.12-5.84-1.92-1.37-4.28-.13-6.15,3.53-2.71,5.64-2.2c2.51.61,4.16,2.91,4.08,5.47-.04,1.19,1.81,1.19,1.85,0,.1-2.96-1.64-5.73-4.37-6.89s-6.1-.46-8.1,1.79-2.42,5.56-.99,8.22,4.4,4.09,7.34,3.68c3.42-.48,5.92-3.39,6.13-6.79.07-1.19-1.78-1.18-1.85,0Z"/>
              </g>
              <path class="cls-3" d="m69.32,146.08c-.05,1.11-.99,1.96-2.1,1.91-1.11-.05-1.96-.99-1.91-2.1.05-1.11.99-1.96,2.1-1.91,1.11.05,1.96.99,1.91,2.1Z"/>
            </g>
            <g>
              <g>
                <path class="cls-1" d="m78.05,122.43c-.16,3.44-3.08,6.11-6.53,5.94-3.45-.16-6.11-3.08-5.95-6.53.16-3.44,3.08-6.11,6.53-5.95,3.45.16,6.11,3.08,5.95,6.53Z"/>
                <path class="cls-5" d="m77.12,122.43c-.13,2.2-1.63,4.15-3.75,4.79s-4.51-.12-5.84-1.92-1.37-4.28-.13-6.15,3.53-2.71,5.64-2.2c2.51.61,4.16,2.91,4.08,5.47-.04,1.19,1.81,1.19,1.85,0,.1-2.96-1.64-5.73-4.37-6.89s-6.1-.46-8.1,1.79-2.42,5.56-.99,8.22,4.4,4.09,7.34,3.68c3.42-.48,5.92-3.39,6.13-6.79.07-1.19-1.78-1.18-1.85,0Z"/>
              </g>
              <path class="cls-3" d="m74.98,120.36c-.05,1.11-.99,1.96-2.1,1.91s-1.96-.99-1.91-2.1c.05-1.11.99-1.96,2.1-1.91,1.11.05,1.96.99,1.91,2.1Z"/>
            </g>
            <g>
              <g>
                <path class="cls-1" d="m54.64,145.79c-.16,3.44-3.08,6.11-6.53,5.94-3.45-.16-6.11-3.08-5.95-6.53.16-3.44,3.08-6.11,6.53-5.95,3.45.16,6.11,3.08,5.95,6.53Z"/>
                <path class="cls-5" d="m53.71,145.79c-.13,2.2-1.63,4.15-3.75,4.79s-4.51-.12-5.84-1.92-1.37-4.28-.13-6.15,3.53-2.71,5.64-2.2c2.51.61,4.16,2.91,4.08,5.47-.04,1.19,1.81,1.19,1.85,0,.1-2.96-1.64-5.73-4.37-6.89s-6.1-.46-8.1,1.79-2.42,5.56-.99,8.22,4.4,4.09,7.34,3.68c3.42-.48,5.92-3.39,6.13-6.79.07-1.19-1.78-1.18-1.85,0Z"/>
              </g>
              <path class="cls-3" d="m51.57,143.72c-.05,1.11-.99,1.96-2.1,1.91-1.11-.05-1.96-.99-1.91-2.1.05-1.11.99-1.96,2.1-1.91,1.11.05,1.96.99,1.91,2.1Z"/>
            </g>
            <g>
              <g>
                <path class="cls-1" d="m53.83,155.42c-.16,3.44-3.08,6.11-6.53,5.94-3.45-.16-6.11-3.08-5.95-6.53.16-3.44,3.08-6.11,6.53-5.95,3.45.16,6.11,3.08,5.95,6.53Z"/>
                <path class="cls-5" d="m52.91,155.42c-.13,2.2-1.63,4.15-3.75,4.79s-4.51-.12-5.84-1.92-1.37-4.28-.13-6.15,3.53-2.71,5.64-2.2c2.51.61,4.16,2.91,4.08,5.47-.04,1.19,1.81,1.19,1.85,0,.1-2.96-1.64-5.73-4.37-6.89s-6.1-.46-8.1,1.79-2.42,5.56-.99,8.22,4.4,4.09,7.34,3.68c3.42-.48,5.92-3.39,6.13-6.79.07-1.19-1.78-1.18-1.85,0Z"/>
              </g>
              <path class="cls-3" d="m50.77,153.35c-.05,1.11-.99,1.96-2.1,1.91-1.11-.05-1.96-.99-1.91-2.1.05-1.11.99-1.96,2.1-1.91,1.11.05,1.96.99,1.91,2.1Z"/>
            </g>
          </g>
          <path class="cls-5" d="m93.18,62.25c0,.24-.02.49-.04.73,0,.05,0,.09-.01.14-.02.16.02-.15,0,0-.02.14-.05.27-.07.4-.1.48-.25.96-.44,1.42.07-.17-.08.17-.09.2-.05.1-.1.2-.15.3-.13.25-.27.49-.42.73-.31.5-.56.82-.9,1.22-1.71,2-3.9,3.49-6.2,4.74-6.58,3.58-14.17,5.33-21.53,6.39-9.32,1.34-18.89,1.43-28.25.4-7.7-.84-15.62-2.44-22.67-5.75-2.53-1.19-5.02-2.61-7.06-4.52-.86-.81-1.54-1.57-2.12-2.51-.13-.21-.25-.42-.37-.64-.06-.11-.12-.23-.17-.35-.06-.13-.13-.28-.11-.24-.18-.44-.32-.9-.42-1.37-.03-.12-.05-.24-.07-.36-.03-.2,0-.05,0,0,0-.06-.02-.12-.02-.18-.02-.24-.03-.48-.04-.73,0-1.29-2.01-1.29-2,0,.03,5.25,4.7,9.01,8.88,11.36,6.8,3.82,14.69,5.7,22.34,6.81,9.68,1.4,19.59,1.55,29.31.44,8.08-.92,16.3-2.62,23.67-6.17,4.42-2.13,9.82-5.58,10.8-10.82.1-.54.16-1.08.16-1.63,0-1.29-1.99-1.29-2,0h0Z"/>
        </g>
      </g>
    </g>
  </g>
</svg>