<?xml version="1.0" encoding="UTF-8"?>
<svg id="Layer_2" data-name="Layer 2" xmlns="http://www.w3.org/2000/svg" viewBox="0 0 48.33 90.62">
  <defs>
    <style>
      .cls-1 {
        fill: #ff7e51;
        stroke: #ff4200;
        stroke-miterlimit: 10;
        stroke-width: 2.8px;
      }

      .cls-2 {
        fill: #607ba3;
      }

      .cls-2, .cls-3 {
        stroke-width: 0px;
      }

      .cls-3 {
        fill: #ff4200;
      }
    </style>
  </defs>
  <g id="OBJECTS">
    <g>
      <g>
        <path class="cls-1" d="m20.99,2.54c.06-.69.88-1.14,1.88-1.14,1,0,1.82.5,1.87,1.19l-.32,61.7c-.02.71-.86,1.28-1.88,1.27-1.03,0-1.86-.58-1.87-1.29h0s.33-61.74.33-61.74Z"/>
        <path class="cls-3" d="m24.27,3.06c-.69,1.24-2.83.93-3.16-.46,1.22.51,1.86.63,3.16.46h0Z"/>
      </g>
      <path class="cls-2" d="m25.26,16.61c2.94.22,4.75,1.29,4.75,2.16,0,1.04-2.4,2.2-5.84,2.2s-5.84-1.16-5.84-2.2c0-.64.9-1.3,2.31-1.73l.06-.88c-2.03.54-3.2,1.49-3.2,2.6,0,1.73,2.86,3.03,6.66,3.03s6.66-1.3,6.66-3.03c0-1.52-2.27-2.74-5.52-2.98l-.05.82Z"/>
      <path class="cls-2" d="m20.49,17.75c-9.42,1.79-16.66,10.06-17.33,20.18v.15c-.02.1-.02.2-.03.3-.01.29-.03.59-.03.88,0,0,0,.01,0,.02.09.11.26.29.53.52,1.53,1.26,6.45,4.02,20.13,4.02,19.63,0,21.7-4.08,21.84-4.41-.04-11.86-9.17-21.54-20.49-21.98l.06-1.24s0,0,0,0c11.58.43,20.95,9.98,21.63,21.91l1.53,4.67v.08c.01.11.03,1.1-1.1,2.3-.26.27-.57.55-.95.83l-3.67,37.25c-.04,4.16-8.04,7.41-18.25,7.41s-18.21-3.25-18.25-7.41l-3.65-37.01C.15,44.61.01,43.08,0,42.89v-.13s1.93-5.02,1.93-5.02c.76-10.74,8.58-19.49,18.65-21.26l-.09,1.26ZM7.33,83.12v.06c0,3,6.84,6.2,17.02,6.2s17.02-3.21,17.02-6.2l3.58-36.39c-2.92,1.56-8.28,2.96-18.03,3.24-.16,0-.31,0-.47.01-.21,0-.41,0-.62.01-.25,0-.5,0-.75.01-.16,0-.32,0-.48,0-.43,0-.87,0-1.31,0-.56,0-1.11,0-1.65-.01-7.58-.11-13.3-1.02-17.05-2.69-.05-.02-.11-.05-.16-.07-.19-.09-.39-.18-.57-.27-.03-.01-.06-.03-.09-.04l3.56,36.12Zm-.44-36.18s0,0,0,0c.12.04.23.08.35.11.03.01.07.02.11.03.1.03.2.06.3.09.11.03.23.07.35.1.04,0,.07.02.11.03.16.04.32.08.48.13.02,0,.05.01.07.02.16.04.31.08.48.12.02,0,.04,0,.05.01.18.04.36.08.55.12,0,0,0,0,0,0,1.78.38,3.93.7,6.53.9.02,0,.04,0,.06,0,.27.02.55.04.83.06.02,0,.03,0,.05,0,.59.04,1.21.07,1.85.1.03,0,.06,0,.09,0,.27.01.55.02.83.03.09,0,.17,0,.26,0,.23,0,.46.01.69.02.11,0,.21,0,.32,0,.23,0,.46,0,.7.01.1,0,.21,0,.31,0,.34,0,.68,0,1.02,0,.4,0,.78,0,1.17,0,.12,0,.23,0,.34,0,.27,0,.54,0,.81-.01.12,0,.23,0,.35,0,.28,0,.55-.01.82-.02.09,0,.17,0,.26,0,1.12-.03,2.17-.08,3.17-.14.01,0,.02,0,.03,0,8.88-.55,13.1-2.15,15.1-3.54l.17-.12c1.34-.99,1.55-1.83,1.58-2.04l-.79-2.39s-.08.09-.12.14c0,0-.01.02-.02.02-.05.05-.09.1-.15.15,0,0,0,0,0,0-.05.05-.1.1-.16.15,0,0-.02.02-.03.03-.06.05-.12.1-.19.16,0,0-.01,0-.01.01-.06.05-.13.1-.2.15-.01,0-.02.02-.03.03-.07.05-.15.11-.24.16,0,0-.02.01-.03.02-.08.05-.16.1-.24.15-.01,0-.03.02-.04.02-.09.06-.19.11-.29.17-.02,0-.03.02-.05.03-.09.05-.19.1-.29.16-.01,0-.03.01-.04.02-.11.06-.23.11-.35.17-.02,0-.04.02-.06.03-.11.05-.23.11-.35.16-.01,0-.02,0-.03.01-.13.06-.27.11-.41.17-.03.01-.05.02-.08.03-.14.05-.28.11-.43.16,0,0-.01,0-.02,0-.16.06-.32.11-.48.17-.03.01-.06.02-.1.03-.34.11-.7.22-1.08.32-.04,0-.07.02-.11.03-.39.1-.81.21-1.25.3-.04,0-.08.02-.12.03-.22.05-.45.1-.69.14-.01,0-.03,0-.04,0-.23.04-.46.09-.7.13-.04,0-.09.02-.13.02-.25.04-.51.09-.78.13-.03,0-.05,0-.08.01-.25.04-.5.08-.76.11-.05,0-.09.01-.14.02-.28.04-.57.08-.87.11-.04,0-.08,0-.12.01-.27.03-.56.07-.84.1-.04,0-.09,0-.13.01-.32.03-.64.07-.97.1-.05,0-.1,0-.15.01-.31.03-.63.05-.96.08-.04,0-.07,0-.11,0-.35.03-.71.05-1.08.07-.06,0-.13,0-.19.01-.35.02-.71.04-1.08.06-.03,0-.05,0-.08,0-.39.02-.79.03-1.2.05-.07,0-.15,0-.22,0-.41.01-.82.03-1.24.04,0,0,0,0-.01,0-.43,0-.88.02-1.33.02-.08,0-.16,0-.24,0-.45,0-.91,0-1.39,0-.05,0-.09,0-.14,0-.49,0-.96,0-1.42-.01-.19,0-.36,0-.55-.01-.33,0-.65-.01-.96-.03-.2,0-.39-.01-.58-.02-.29-.01-.58-.02-.87-.04-.19,0-.37-.02-.56-.03-.29-.02-.58-.04-.86-.05-.16-.01-.32-.02-.47-.03-.38-.03-.74-.06-1.1-.09-.07,0-.15-.01-.22-.02-.38-.04-.75-.08-1.1-.12-.14-.02-.27-.03-.41-.05-.24-.03-.48-.06-.72-.09-.15-.02-.29-.04-.43-.06-.22-.03-.43-.06-.64-.1-.14-.02-.27-.04-.41-.07-.21-.04-.42-.07-.63-.11-.12-.02-.23-.04-.35-.06-.27-.05-.52-.1-.77-.16-.05-.01-.1-.02-.15-.03-.28-.06-.56-.13-.82-.19-.1-.02-.19-.05-.28-.07-.17-.04-.35-.09-.51-.13-.1-.03-.2-.06-.3-.08-.15-.04-.3-.09-.45-.13-.09-.03-.19-.06-.28-.09-.15-.05-.29-.09-.43-.14-.08-.03-.16-.05-.24-.08-.18-.06-.35-.12-.52-.19-.03-.01-.06-.02-.09-.03-.19-.07-.38-.15-.56-.22-.06-.03-.12-.05-.18-.08-.12-.05-.23-.1-.34-.15-.07-.03-.13-.06-.19-.09-.1-.05-.19-.09-.29-.14-.06-.03-.12-.06-.18-.09-.09-.05-.18-.09-.27-.14-.05-.03-.1-.05-.15-.08-.11-.06-.21-.12-.3-.17-.02-.01-.05-.03-.07-.04-.12-.07-.23-.14-.33-.21-.04-.03-.07-.05-.11-.07-.07-.04-.13-.09-.19-.13-.04-.03-.08-.05-.11-.08-.05-.04-.11-.08-.16-.12-.03-.03-.07-.05-.1-.08-.05-.04-.09-.07-.14-.11-.03-.02-.06-.05-.08-.07-.05-.04-.1-.08-.14-.12-.02-.01-.03-.03-.05-.04-.06-.05-.11-.1-.15-.15-.02-.02-.04-.04-.06-.06-.02-.02-.04-.04-.06-.06l-1.04,2.71c.11.45.88,2.45,5.63,4Z"/>
    </g>
  </g>
</svg>